# xmcd
#
# Track frame offsets:
#	150
#	29775
#	42825
#	94725
#	102525
#	150575
#	195275
#	219975
#	256800
#	289125
#
# Disc length: 4406 seconds
#
# Revision: 1
# Processed by: cddbd v1.5PL3 Copyright (c) Steve Scherf et al.
# Submitted via: audiograbber 1.83.01
#
DISCID=8611340a
DTITLE=Robert B. Reich - Reason (5of6) Why Liberals will win the Battle for Ame
DTITLE=rica
DYEAR=2004
DGENRE=Speech
TTITLE0=Disk5T01
TTITLE1=Disk5T02
TTITLE2=Disk5T03
TTITLE3=Disk5T04
TTITLE4=Disk5T05
TTITLE5=Disk5T06
TTITLE6=Disk5T07
TTITLE7=Disk5T08
TTITLE8=Disk5T09
TTITLE9=Disk5T10
EXTD=
EXTT0=
EXTT1=
EXTT2=
EXTT3=
EXTT4=
EXTT5=
EXTT6=
EXTT7=
EXTT8=
EXTT9=
PLAYORDER=
